<?xml version="1.0" standalone="no"?>
<!DOCTYPE svg PUBLIC "-//W3C//DTD SVG 20010904//EN"
 "http://www.w3.org/TR/2001/REC-SVG-20010904/DTD/svg10.dtd">
<svg version="1.0" xmlns="http://www.w3.org/2000/svg"
 width="512.000000pt" height="512.000000pt" viewBox="0 0 512.000000 512.000000"
 preserveAspectRatio="xMidYMid meet">
<metadata>
Created by potrace 1.14, written by Peter Selinger 2001-2017
</metadata>
<g transform="translate(0.000000,512.000000) scale(0.100000,-0.100000)"
fill="#000000" stroke="none">
<path d="M2488 5095 c-2 -2 -37 -5 -78 -8 -89 -7 -205 -22 -275 -37 -52 -11
-103 -21 -120 -24 -5 -1 -15 -4 -20 -8 -6 -3 -28 -9 -50 -13 -22 -4 -45 -12
-52 -17 -7 -5 -17 -7 -23 -3 -5 3 -10 1 -10 -4 0 -6 -3 -10 -7 -10 -5 1 -11 0
-15 -1 -5 -1 -11 -3 -15 -4 -18 -4 -89 -29 -98 -35 -5 -3 -17 -6 -25 -8 -20
-3 -63 -26 -72 -38 -4 -5 -8 -6 -8 -2 0 9 -236 -112 -282 -144 -14 -11 -31
-19 -36 -19 -6 0 -12 -3 -14 -7 -5 -11 -66 -53 -77 -53 -5 0 -11 -3 -13 -8 -1
-4 -32 -29 -67 -56 -36 -27 -83 -65 -105 -84 -76 -67 -286 -280 -286 -290 0
-6 -4 -12 -8 -14 -26 -11 -220 -284 -258 -363 -9 -19 -20 -35 -25 -35 -5 0 -9
-5 -9 -11 0 -6 -24 -59 -53 -118 -42 -84 -105 -230 -113 -261 0 -3 -3 -12 -7
-20 -10 -25 -57 -182 -60 -199 -1 -9 -6 -22 -11 -29 -4 -7 -5 -16 -2 -19 3 -3
1 -12 -5 -20 -6 -7 -9 -13 -6 -13 3 0 1 -16 -4 -35 -9 -32 -20 -97 -22 -137
-1 -10 -4 -18 -7 -18 -3 0 -6 -10 -6 -22 -1 -13 -5 -63 -9 -113 -4 -49 -8
-113 -9 -140 -1 -28 -6 -56 -10 -63 -4 -7 -4 -12 1 -12 4 0 8 -18 8 -40 0 -22
-3 -40 -6 -40 -3 0 -4 -15 -2 -32 6 -53 11 -117 17 -203 3 -45 7 -87 10 -95 3
-8 7 -33 10 -55 6 -42 9 -58 26 -140 6 -27 12 -59 14 -70 2 -11 4 -20 5 -20 2
0 5 -11 8 -25 12 -60 54 -193 66 -207 5 -7 6 -13 2 -13 -4 0 -3 -6 3 -12 6 -7
11 -17 12 -23 9 -42 105 -251 156 -341 24 -43 44 -81 44 -86 0 -4 3 -8 8 -8 4
0 16 -17 27 -37 11 -20 25 -41 30 -47 6 -6 27 -36 47 -66 21 -30 48 -67 60
-82 13 -15 34 -42 48 -60 33 -45 265 -276 314 -313 22 -17 49 -39 60 -50 24
-22 114 -85 122 -85 3 0 14 -8 25 -18 10 -11 32 -25 47 -33 15 -8 29 -16 32
-19 7 -7 46 -30 110 -63 30 -16 61 -33 67 -39 7 -6 13 -7 13 -3 0 3 15 -2 32
-13 18 -10 65 -31 103 -46 39 -16 78 -32 88 -37 10 -5 22 -7 27 -4 6 4 13 -1
16 -9 3 -9 9 -14 13 -11 4 2 42 -7 84 -20 42 -14 91 -27 109 -30 17 -3 34 -8
38 -10 4 -2 22 -7 41 -10 19 -3 45 -8 59 -10 72 -15 120 -21 235 -31 202 -18
393 -8 620 31 50 9 95 17 100 19 6 1 28 7 50 11 49 11 47 10 65 17 8 4 53 18
100 33 47 15 124 44 173 65 48 21 87 35 87 31 0 -3 4 -1 8 4 4 6 43 28 87 50
136 69 341 205 470 315 39 33 253 250 283 286 13 16 41 49 63 74 21 25 39 48
39 52 0 4 6 13 13 20 7 7 23 29 34 48 12 20 31 47 43 59 11 13 20 30 20 37 0
7 4 14 9 16 4 2 20 23 34 48 31 54 150 291 153 305 1 6 14 36 28 67 14 32 23
58 20 58 -4 0 -2 6 4 13 10 12 68 193 76 237 3 14 5 25 6 25 3 0 21 82 23 108
1 9 4 17 7 17 3 0 6 12 7 28 2 31 11 97 13 97 2 0 7 40 16 120 8 79 8 422 0
505 -13 122 -23 201 -33 245 -3 11 -6 32 -8 46 -2 14 -9 37 -14 51 -5 14 -7
28 -4 31 3 3 1 12 -3 19 -5 7 -9 18 -11 23 -8 37 -12 55 -24 95 -7 25 -13 47
-14 50 -1 5 -31 90 -45 125 -36 93 -112 257 -156 334 -30 52 -54 98 -54 102 0
5 -4 9 -10 9 -5 0 -10 6 -10 13 0 7 -13 28 -30 47 -16 19 -29 38 -30 42 -1 21
-169 225 -261 317 -131 130 -156 153 -244 223 -106 84 -315 218 -367 235 -10
3 -18 9 -18 14 0 5 -4 9 -10 9 -5 0 -33 11 -62 24 -87 39 -169 72 -243 96 -38
12 -77 25 -85 28 -8 3 -26 7 -40 9 -13 2 -27 7 -30 11 -3 4 -20 8 -39 10 -19
1 -40 7 -46 12 -7 5 -14 7 -17 4 -3 -3 -26 0 -49 7 -24 6 -62 13 -84 15 -22 2
-54 6 -71 9 -86 13 -387 28 -396 20z m176 -996 c3 -3 7 -214 9 -470 1 -255 6
-470 11 -477 4 -6 4 -12 -1 -12 -9 0 -8 -500 2 -530 3 -11 11 -20 16 -20 5 0
58 -23 117 -51 59 -28 163 -78 232 -111 69 -33 161 -77 205 -98 208 -100 316
-150 324 -150 5 0 14 -7 21 -15 7 -9 15 -14 17 -11 3 2 62 -24 131 -58 70 -34
143 -68 162 -76 19 -7 42 -19 51 -27 8 -7 19 -13 23 -13 4 0 51 -21 104 -47
54 -26 99 -47 102 -48 3 0 19 -8 36 -18 17 -9 34 -13 38 -10 3 4 6 1 6 -5 0
-6 9 -14 20 -17 26 -8 26 -10 -12 -91 -17 -38 -33 -75 -34 -83 -2 -8 -7 -17
-12 -20 -9 -6 -23 -36 -28 -60 -6 -28 -27 -28 -87 1 -34 17 -93 45 -132 63
-96 45 -339 161 -397 190 -27 14 -48 21 -48 17 0 -4 -4 -2 -8 3 -4 6 -27 19
-52 30 -25 11 -48 23 -51 28 -3 5 -10 9 -15 9 -10 0 -88 36 -225 103 -49 24
-89 41 -89 39 0 -3 -15 5 -32 18 -18 13 -35 22 -38 22 -3 -1 -57 23 -120 54
-63 31 -117 56 -120 56 -5 1 -38 17 -300 143 l-116 55 -3 477 c-2 262 -4 641
-5 843 l-2 367 25 3 c44 5 269 3 275 -3z"/>
</g>
</svg>
